<?xml version="1.0" encoding="UTF-8" standalone="no"?>
<svg
   xmlns:dc="http://purl.org/dc/elements/1.1/"
   xmlns:cc="http://creativecommons.org/ns#"
   xmlns:rdf="http://www.w3.org/1999/02/22-rdf-syntax-ns#"
   xmlns:svg="http://www.w3.org/2000/svg"
   xmlns="http://www.w3.org/2000/svg"
   xmlns:sodipodi="http://sodipodi.sourceforge.net/DTD/sodipodi-0.dtd"
   xmlns:inkscape="http://www.inkscape.org/namespaces/inkscape"
   sodipodi:docname="icon_enemy_spawn_point.svg"
   inkscape:version="1.0alpha2 (4e56782896, 2019-07-15)"
   id="svg880"
   version="1.1"
   viewBox="0 0 4.2333332 4.2333334"
   height="16"
   width="16">
  <defs
     id="defs874" />
  <sodipodi:namedview
     inkscape:snap-page="true"
     inkscape:snap-center="true"
     inkscape:snap-bbox-midpoints="true"
     inkscape:snap-bbox-edge-midpoints="true"
     inkscape:bbox-paths="true"
     inkscape:bbox-nodes="true"
     inkscape:snap-bbox="true"
     inkscape:snap-object-midpoints="true"
     inkscape:lockguides="true"
     inkscape:document-rotation="0"
     inkscape:window-maximized="1"
     inkscape:window-y="0"
     inkscape:window-x="1920"
     inkscape:window-height="1010"
     inkscape:window-width="1920"
     units="px"
     inkscape:guide-bbox="true"
     showguides="true"
     showgrid="false"
     inkscape:current-layer="svg880"
     inkscape:document-units="mm"
     inkscape:cy="13.189909"
     inkscape:cx="-2.3887584"
     inkscape:zoom="22.4"
     inkscape:pageshadow="2"
     inkscape:pageopacity="0.0"
     borderopacity="1.0"
     bordercolor="#666666"
     pagecolor="#ffffff"
     id="base">
    <sodipodi:guide
       inkscape:color="rgb(0,0,255)"
       inkscape:label=""
       inkscape:locked="true"
       id="guide1425"
       orientation="1,0"
       position="0,0" />
    <sodipodi:guide
       inkscape:color="rgb(0,0,255)"
       inkscape:label=""
       inkscape:locked="true"
       id="guide1427"
       orientation="0,1"
       position="4.2333333,4.2333333" />
    <sodipodi:guide
       inkscape:locked="true"
       id="guide1429"
       orientation="0,1"
       position="0,0" />
    <sodipodi:guide
       inkscape:locked="true"
       id="guide1431"
       orientation="1,0"
       position="4.2333332,4.2333334" />
    <sodipodi:guide
       inkscape:color="rgb(0,0,255)"
       inkscape:locked="true"
       inkscape:label=""
       id="guide64"
       orientation="1,0"
       position="2.1166666,2.1166666" />
    <sodipodi:guide
       inkscape:color="rgb(0,0,255)"
       inkscape:locked="false"
       inkscape:label=""
       id="guide68"
       orientation="1,0"
       position="0.26458333,0" />
    <sodipodi:guide
       inkscape:color="rgb(0,0,255)"
       inkscape:locked="false"
       inkscape:label=""
       id="guide70"
       orientation="1,0"
       position="3.96875,0" />
    <sodipodi:guide
       inkscape:color="rgb(0,0,255)"
       inkscape:label=""
       id="guide102"
       inkscape:locked="true"
       orientation="0,-1"
       position="2.1166666,0.79374999" />
    <sodipodi:guide
       inkscape:color="rgb(0,0,255)"
       inkscape:locked="false"
       inkscape:label=""
       id="guide104"
       orientation="1,0"
       position="1.0583333,0.79375001" />
    <sodipodi:guide
       inkscape:color="rgb(0,0,255)"
       inkscape:locked="false"
       inkscape:label=""
       id="guide106"
       orientation="1,0"
       position="3.175,0.79375001" />
    <sodipodi:guide
       inkscape:color="rgb(0,0,255)"
       inkscape:locked="false"
       inkscape:label=""
       id="guide108"
       orientation="0,-1"
       position="2.1166666,1.4552083" />
    <sodipodi:guide
       inkscape:color="rgb(0,0,255)"
       inkscape:locked="false"
       inkscape:label=""
       id="guide110"
       orientation="1,0"
       position="1.5875,1.4552083" />
    <sodipodi:guide
       inkscape:color="rgb(0,0,255)"
       inkscape:locked="false"
       inkscape:label=""
       id="guide112"
       orientation="1,0"
       position="2.6458333,1.4552083" />
  </sodipodi:namedview>
  <metadata
     id="metadata877">
    <rdf:RDF>
      <cc:Work
         rdf:about="">
        <dc:format>image/svg+xml</dc:format>
        <dc:type
           rdf:resource="http://purl.org/dc/dcmitype/StillImage" />
        <dc:title></dc:title>
      </cc:Work>
    </rdf:RDF>
  </metadata>
  <g
     transform="translate(0,-292.76665)"
     id="layer1"
     inkscape:groupmode="layer"
     inkscape:label="Vrstva 1" />
  <path
     transform="scale(0.26458333)"
     d="M 8 0 C 4.1340067 -1.3567941e-07 1 2.910149 1 6.5 C 1.0000002 10.089851 8.0449219 16.109375 8.0449219 16.109375 C 8.0449219 16.109375 15 10.089851 15 6.5 C 15 2.9101491 11.865993 0 8 0 z M 5 3.1816406 A 2.5000001 2.5000001 0 0 1 7.2167969 4.5292969 A 1.1538462 1.1538462 0 0 0 7.1914062 4.5292969 A 1.1538462 1.1538462 0 0 0 6.0390625 5.6816406 A 1.1538462 1.1538462 0 0 0 7.1914062 6.8359375 A 1.1538462 1.1538462 0 0 0 7.2167969 6.8359375 A 2.5000001 2.5000001 0 0 1 5 8.1816406 A 2.5000001 2.5000001 0 0 1 2.5 5.6816406 A 2.5000001 2.5000001 0 0 1 5 3.1816406 z M 11 3.2734375 A 2.5000001 2.5000001 0 0 1 13.216797 4.6210938 A 1.1538462 1.1538462 0 0 0 13.191406 4.6191406 A 1.1538462 1.1538462 0 0 0 12.039062 5.7734375 A 1.1538462 1.1538462 0 0 0 13.191406 6.9277344 A 1.1538462 1.1538462 0 0 0 13.216797 6.9277344 A 2.5000001 2.5000001 0 0 1 11 8.2734375 A 2.5000001 2.5000001 0 0 1 8.5 5.7734375 A 2.5000001 2.5000001 0 0 1 11 3.2734375 z "
     style="fill:#c41c00;fill-opacity:1;stroke-width:0.999999"
     id="path1076" />
</svg>
