<svg width="16" height="16" version="1.1" viewBox="0 0 4.2333 4.2333" xmlns="http://www.w3.org/2000/svg">
 <path transform="scale(.26458)" d="m8 2c-4.4183 0-8 6-8 6s3.5817 6 8 6c4.4183 0 8-6 8-6s-3.5817-6-8-6zm0 1.2812a4.7193 4.7193 0 0 1 0.69531 0.050781l0.32031 1.2773a3.5395 3.5395 0 0 1 1.4141 0.81641l1.2656-0.36133a4.7193 4.7193 0 0 1 0.69531 1.2031l-0.94531 0.91602a3.5395 3.5395 0 0 1 0.09375 0.81641 3.5395 3.5395 0 0 1-0.095703 0.81641l0.94727 0.91602a4.7193 4.7193 0 0 1-0.69531 1.2031l-1.2676-0.36133a3.5395 3.5395 0 0 1-1.4121 0.81641l-0.32031 1.2773a4.7193 4.7193 0 0 1-0.69531 0.050781 4.7193 4.7193 0 0 1-0.69531-0.050781l-0.32031-1.2773a3.5395 3.5395 0 0 1-1.4141-0.81641l-1.2656 0.36133a4.7193 4.7193 0 0 1-0.69531-1.2031l0.94531-0.91602a3.5395 3.5395 0 0 1-0.09375-0.81641 3.5395 3.5395 0 0 1 0.095703-0.81641l-0.94727-0.91602a4.7193 4.7193 0 0 1 0.69531-1.2031l1.2676 0.36133a3.5395 3.5395 0 0 1 1.4121-0.81641l0.32031-1.2773a4.7193 4.7193 0 0 1 0.69531-0.050781zm0 2.2188a2.5 2.5 0 0 0-2.5 2.5 2.5 2.5 0 0 0 2.5 2.5 2.5 2.5 0 0 0 2.5-2.5 2.5 2.5 0 0 0-2.5-2.5z" fill="#008080"/>
</svg>
