<svg width="16" height="16" version="1.1" viewBox="0 0 4.2333 4.2333" xmlns="http://www.w3.org/2000/svg">
 <path transform="scale(.26458)" d="m8 2c-4.4183 0-8 6-8 6 5.9212e-16 0 3.5817 6 8 6 1.2349 0 2.3991-0.47691 3.4434-1.1523l2.4922 2.5137c0.3498 0.35315 0.87022 0.40237 1.166 0.10938 0.2958-0.293 0.25215-0.81287-0.097656-1.166l-2.3477-2.3711c2.0184-1.736 3.3438-3.9336 3.3438-3.9336s-3.5817-6-8-6zm0 1.5a4.5 4.5 0 0 1 4.5 4.5 4.5 4.5 0 0 1-0.97461 2.7949l1.127 1.1367c-0.38152 0.32806-0.77934 0.63928-1.207 0.91602l-1.0371-1.0469a4.5 4.5 0 0 1-2.4082 0.69922 4.5 4.5 0 0 1-4.5-4.5 4.5 4.5 0 0 1 4.5-4.5zm-0.052734 1.3926a3.2614 3.1073 0 0 0-3.209 3.1074 3.2614 3.1073 0 0 0 3.2617 3.1074 3.2614 3.1073 0 0 0 3.2617-3.1074 3.2614 3.1073 0 0 0-3.2617-3.1074 3.2614 3.1073 0 0 0-0.052734 0z" fill="#009688"/>
</svg>
